<?xml version="1.0" standalone="no"?>
<!DOCTYPE svg PUBLIC "-//W3C//DTD SVG 20010904//EN"
 "http://www.w3.org/TR/2001/REC-SVG-20010904/DTD/svg10.dtd">
<svg version="1.0" xmlns="http://www.w3.org/2000/svg"
 width="3072.000000pt" height="3072.000000pt" viewBox="0 0 3072.000000 3072.000000"
 preserveAspectRatio="xMidYMid meet">
<metadata>
Created by potrace 1.16, written by Peter Selinger 2001-2019
</metadata>
<g transform="translate(0.000000,3072.000000) scale(0.100000,-0.100000)"
fill="#000000" stroke="none">
<path d="M5555 27470 c4 -7 550 -10 1606 -10 1064 0 1598 3 1594 10 -4 7 -550
10 -1606 10 -1064 0 -1598 -3 -1594 -10z"/>
<path d="M11710 27470 c0 -7 394 -10 1161 -10 771 0 1158 3 1154 10 -4 7 -402
10 -1161 10 -763 0 -1154 -3 -1154 -10z"/>
<path d="M23685 27470 c-4 -7 332 -10 1000 -10 668 0 1004 3 1000 10 -4 7
-348 10 -1000 10 -652 0 -996 -3 -1000 -10z"/>
<path d="M21825 26269 c-544 -4 -1737 -12 -2650 -19 -913 -7 -2121 -15 -2685
-19 -1088 -7 -7559 -13 -9200 -9 -536 2 -1129 2 -1316 1 l-342 -1 -53 -27
c-110 -55 -114 -60 -132 -182 -14 -94 -17 -290 -22 -1483 -4 -756 -11 -2167
-17 -3135 -17 -2625 -17 -7818 0 -7872 14 -48 108 -140 177 -173 l41 -20 9720
1 c9003 1 9725 2 9794 17 l75 17 41 62 c41 60 42 65 49 165 3 57 5 2895 3
6308 l-3 6205 -22 40 c-42 77 -64 95 -133 112 -58 14 -191 16 -1200 18 -624 1
-1580 -2 -2125 -6z"/>
<path d="M26338 25524 c-5 -4 -8 -241 -8 -528 0 -350 3 -517 10 -510 7 7 9
190 8 528 -2 285 -6 514 -10 510z"/>
<path d="M26330 20280 c0 -1665 3 -2499 10 -2495 7 4 10 847 10 2495 0 1648
-3 2491 -10 2495 -7 4 -10 -830 -10 -2495z"/>
<path d="M7103 11753 c901 -2 2373 -2 3270 0 898 1 161 2 -1638 2 -1798 0
-2533 -1 -1632 -2z"/>
<path d="M19502 11753 c339 -2 897 -2 1240 0 343 1 65 2 -617 2 -682 0 -962
-1 -623 -2z"/>
<path d="M23708 11753 c347 -2 917 -2 1265 0 347 1 63 2 -633 2 -696 0 -980
-1 -632 -2z"/>
<path d="M7868 11733 c899 -2 2366 -2 3260 0 895 1 160 2 -1633 2 -1793 0
-2525 -1 -1627 -2z"/>
<path d="M19763 11733 c736 -2 1938 -2 2670 0 733 1 131 2 -1338 2 -1468 0
-2068 -1 -1332 -2z"/>
<path d="M20630 8345 l-3 -60 -7 55 -7 55 -3 -60 -3 -60 -6 55 c-4 33 -9 50
-14 43 -5 -7 -18 -13 -30 -13 -16 0 -18 -3 -8 -9 8 -5 9 -11 3 -15 -6 -4 -16
2 -22 11 -8 13 -13 14 -16 6 -3 -7 -14 -13 -25 -13 -20 0 -21 -1 -24 -41 -3
-37 -55 -116 -85 -128 -14 -6 -54 -17 -89 -26 -81 -21 -181 -61 -251 -102
-160 -94 -257 -119 -583 -154 -87 -10 -114 -16 -135 -34 -78 -66 -206 -115
-347 -134 -38 -6 -167 -15 -285 -21 -408 -20 -537 -35 -625 -75 -59 -28 -138
-45 -201 -45 -25 0 -89 -9 -142 -20 -177 -35 -225 -41 -452 -50 -124 -6 -265
-12 -315 -15 -49 -2 -439 -10 -865 -16 -590 -9 -978 -8 -1625 1 -1209 17
-1287 20 -1370 55 -18 7 -86 16 -151 20 -122 7 -168 17 -289 66 -86 35 -246
56 -495 63 -302 10 -499 36 -628 83 -37 13 -84 29 -105 34 -22 5 -67 21 -100
36 -48 20 -101 30 -232 44 -215 24 -395 67 -498 119 -72 37 -132 80 -111 80 5
0 -12 13 -38 28 -26 15 -61 40 -79 56 -33 29 -83 43 -94 26 -3 -5 -12 -7 -20
-4 -8 4 -12 10 -9 15 3 5 -2 6 -10 3 -9 -3 -14 -10 -11 -14 5 -9 -71 -4 -86 5
-5 4 -9 -24 -9 -64 0 -38 5 -73 10 -76 6 -3 10 -21 10 -38 0 -24 3 -28 10 -17
9 13 10 13 10 0 1 -8 7 -1 15 15 11 22 13 24 9 6 -4 -14 -2 -21 4 -17 5 3 13
-1 16 -10 3 -8 2 -12 -4 -9 -6 3 -10 2 -10 -3 0 -17 13 -22 28 -9 13 10 14 9
7 -2 -6 -11 -4 -13 11 -7 11 4 7 -3 -11 -18 -16 -13 -35 -21 -42 -19 -21 8
-15 -12 12 -37 17 -16 25 -19 25 -9 0 12 2 11 10 -1 5 -8 10 -11 10 -6 0 5 7
3 15 -4 8 -7 12 -17 8 -24 -4 -7 -1 -6 9 1 8 7 17 10 21 7 3 -3 4 2 3 13 -2
10 -11 18 -23 18 -22 0 -53 22 -53 37 0 5 5 6 11 2 6 -3 15 0 20 7 6 10 9 11
10 2 1 -7 2 -17 3 -23 0 -5 3 -9 6 -8 13 5 70 -38 67 -52 -2 -8 -8 -14 -14
-13 -14 3 -11 -21 6 -41 7 -9 10 -16 7 -16 -4 0 -1 -6 6 -14 7 -8 16 -12 20
-10 4 2 9 0 13 -6 4 -6 10 -8 15 -5 5 3 12 0 16 -6 4 -7 3 -9 -4 -5 -25 15
-20 -14 5 -33 16 -11 22 -21 15 -21 -30 0 1 -18 43 -24 36 -6 55 -17 89 -52
24 -24 50 -44 58 -44 8 0 23 -9 33 -20 10 -11 23 -20 28 -20 6 0 2 9 -8 20
-23 26 -8 26 25 0 14 -11 19 -20 11 -20 -11 0 -11 -3 -1 -15 14 -17 65 -21 55
-5 -11 19 14 10 34 -11 16 -17 27 -20 58 -16 21 4 32 4 25 1 -10 -5 -10 -9 -1
-20 13 -16 79 -19 79 -4 0 15 53 0 66 -18 8 -12 24 -14 65 -9 30 3 48 3 41 0
-9 -3 -4 -10 13 -19 34 -17 69 -19 59 -2 -5 8 -2 9 10 5 10 -4 25 -7 34 -8 11
0 12 -2 4 -6 -16 -6 46 -73 70 -73 9 0 20 -4 23 -10 9 -15 42 -12 48 4 3 7 0
19 -6 25 -6 6 -7 11 -3 11 5 0 2 8 -5 18 -13 15 -12 16 3 3 10 -7 15 -18 11
-24 -4 -6 0 -8 9 -5 11 5 14 -1 13 -20 -2 -43 24 -71 68 -72 26 0 36 4 31 11
-4 7 -2 10 5 8 7 -3 11 -7 9 -10 -2 -3 3 -13 11 -22 9 -12 29 -17 65 -17 36 0
47 3 36 10 -10 6 21 7 88 3 74 -4 102 -3 102 5 0 7 7 12 15 12 8 0 15 -7 15
-15 0 -10 -10 -15 -31 -15 -17 0 -28 -4 -24 -10 4 -6 57 -10 126 -10 78 0 118
4 114 10 -7 12 35 13 115 3 40 -5 49 -8 35 -14 -19 -7 -19 -8 1 -8 11 -1 29
-10 39 -21 18 -20 55 -28 55 -12 0 4 -6 14 -12 21 -11 11 -8 12 12 6 14 -4 32
-13 40 -21 12 -12 12 -14 -3 -14 -9 0 -17 -4 -17 -10 0 -5 18 -10 41 -10 24 0
38 4 34 10 -8 13 25 13 45 0 12 -8 12 -10 1 -10 -11 0 -11 -3 -1 -15 7 -8 25
-15 41 -15 15 0 31 -4 34 -10 3 -5 19 -10 35 -10 16 0 32 -4 35 -10 3 -5 19
-10 34 -10 16 0 34 -7 41 -15 14 -17 65 -21 55 -5 -8 13 25 13 45 0 11 -7 11
-10 2 -10 -7 0 -10 -5 -6 -11 4 -8 35 -10 93 -6 47 3 76 3 63 0 -19 -4 -21 -7
-11 -19 9 -11 47 -14 181 -14 93 0 167 3 165 8 -3 4 816 8 1819 8 1025 1 1824
-2 1824 -7 0 -5 112 -9 249 -9 202 0 251 3 260 14 10 11 8 15 -6 19 -10 3 23
4 72 3 62 -1 89 2 88 10 -3 16 130 30 135 15 6 -18 119 -14 126 4 3 10 -1 15
-12 16 -10 0 -12 3 -4 6 6 2 10 8 7 13 -3 4 4 6 15 3 11 -3 20 -9 20 -14 0
-12 67 -11 75 1 3 6 19 10 34 10 15 0 36 9 46 20 10 11 28 20 40 20 13 0 22 6
22 15 0 9 -10 15 -26 15 -24 1 -24 1 -7 12 14 8 24 8 37 -1 11 -6 26 -11 34
-11 9 0 13 -4 10 -10 -4 -6 13 -10 44 -10 28 0 51 5 51 10 0 6 -14 10 -32 10
-24 0 -29 3 -21 11 6 6 9 18 6 25 -3 10 2 14 18 14 19 0 21 -2 9 -10 -11 -7 4
-9 50 -6 36 2 51 2 33 -1 -17 -2 -34 -11 -37 -19 -7 -19 77 -20 93 0 6 7 35
17 64 21 41 6 48 9 32 15 -16 7 -13 9 15 9 19 1 48 8 64 16 33 17 45 13 26
-10 -11 -13 -4 -15 56 -15 38 0 76 5 84 10 12 7 8 10 -14 10 -24 0 -27 2 -16
15 16 19 37 19 56 0 9 -8 25 -13 37 -11 59 12 158 16 152 6 -10 -17 81 -12 95
5 10 12 10 15 -2 15 -19 0 -19 27 -1 34 8 3 11 1 8 -4 -3 -6 1 -10 9 -10 9 0
16 -4 16 -10 0 -18 60 -11 82 10 12 11 29 20 37 20 13 0 14 2 2 9 -9 6 5 8 40
7 30 0 54 3 54 9 1 16 15 35 27 35 7 0 6 -6 -2 -15 -10 -13 -9 -15 12 -15 14
0 38 14 58 35 36 37 29 49 -8 15 -12 -11 -27 -20 -34 -20 -16 1 43 50 60 50 6
0 12 5 12 10 0 6 -6 10 -12 10 -8 0 -5 7 6 15 22 17 61 20 51 5 -3 -5 1 -10 9
-10 9 0 16 5 16 10 0 6 5 10 11 10 5 0 7 -4 4 -10 -3 -5 4 -9 17 -9 13 1 44
-2 70 -6 54 -9 92 0 68 15 -12 8 -11 10 5 10 11 0 38 3 59 7 28 4 37 3 32 -5
-5 -9 8 -12 43 -12 48 0 57 6 52 33 -1 5 12 6 28 2 17 -3 38 -2 48 4 10 6 14
11 8 11 -14 1 17 20 33 20 7 0 10 -4 7 -10 -3 -6 5 -10 18 -10 14 0 27 7 31
15 3 8 14 15 24 15 10 0 27 9 37 20 10 11 24 20 30 20 7 0 18 6 24 14 9 11 6
15 -19 18 -16 2 -34 1 -40 -4 -5 -4 -8 -5 -5 -2 3 4 0 13 -6 20 -8 10 -7 18 5
29 9 9 20 14 25 11 5 -4 11 -1 13 6 2 6 12 12 21 14 9 1 15 -2 11 -7 -3 -5
-10 -6 -16 -3 -8 5 -9 1 -5 -10 5 -11 3 -15 -5 -10 -7 5 -8 3 -3 -7 7 -12 6
-12 -7 -1 -14 11 -16 11 -14 -4 2 -10 10 -18 19 -20 10 -1 15 2 12 6 -3 5 4
14 15 20 12 6 25 21 30 33 7 18 9 19 9 4 1 -10 5 -16 10 -12 20 12 19 -13 0
-34 -41 -44 1 -34 63 15 15 12 24 25 21 28 -4 3 2 6 12 6 18 0 18 0 1 13 -17
13 -18 14 -2 20 10 4 15 3 11 -3 -3 -6 1 -13 9 -16 9 -3 13 -10 10 -15 -3 -5
6 -9 20 -9 14 0 26 5 26 10 0 6 8 10 18 10 10 0 40 23 67 50 27 28 55 50 62
50 8 0 18 11 23 24 5 13 14 27 19 31 6 3 11 13 11 22 0 12 -5 11 -20 -7 -11
-13 -23 -21 -26 -17 -7 7 38 53 49 49 11 -3 117 107 117 122 0 7 9 21 20 31
20 18 30 92 11 81 -5 -3 -11 5 -13 19 -3 13 -2 22 3 20 4 -3 10 1 12 7 3 7 6
2 6 -11 1 -20 3 -21 16 -11 17 14 22 115 5 105 -5 -3 -11 28 -13 77 -3 78 -3
79 -7 23z"/>
<path d="M20975 6680 c-4 -7 200 -10 605 -10 405 0 609 3 605 10 -4 6 -217 10
-605 10 -388 0 -601 -4 -605 -10z"/>
<path d="M25140 3421 c0 -56 -4 -103 -10 -106 -6 -4 -10 26 -10 82 0 60 -3 83
-10 73 -8 -13 -10 -12 -10 4 0 11 -3 17 -6 14 -3 -3 -9 -53 -13 -109 -7 -85
-8 -93 -10 -41 0 36 -5 61 -10 57 -6 -3 -11 12 -13 32 -2 27 -8 39 -20 41 -15
3 -18 -4 -18 -35 -1 -33 -2 -35 -12 -19 -11 19 -11 19 -25 1 -8 -12 -27 -20
-51 -21 -20 -1 -93 -5 -162 -10 -71 -5 -4182 -9 -9465 -9 -9036 0 -9342 1
-9395 18 -64 22 -120 29 -120 16 0 -14 -24 -6 -32 11 -4 9 -7 1 -8 -20 l-1
-35 -19 40 -19 40 -2 -50 c-2 -50 -2 -49 -11 19 -9 67 -20 88 -46 93 -20 5
-17 -310 3 -327 12 -10 15 -10 15 1 0 11 2 11 10 -1 13 -20 13 -53 0 -45 -19
12 -10 -42 10 -60 11 -10 22 -32 26 -50 4 -21 25 -51 65 -89 57 -56 86 -60 33
-5 l-26 27 22 12 c17 9 26 8 46 -5 25 -16 34 -51 10 -42 -11 4 -11 1 -2 -18 6
-13 15 -21 21 -18 5 3 4 0 -2 -7 -9 -10 -9 -17 -2 -26 12 -15 3 -37 -12 -29
-5 4 -9 1 -9 -5 0 -22 84 -100 108 -100 13 0 20 4 17 10 -3 6 1 10 9 10 8 0
18 -4 21 -10 3 -5 1 -10 -5 -10 -6 0 -8 -4 -5 -10 3 -5 18 -10 32 -10 21 0 24
2 13 15 -15 18 -1 19 22 1 10 -7 15 -16 11 -19 -3 -4 7 -8 23 -9 39 -2 44 -1
79 6 29 6 30 6 5 -6 l-25 -12 26 -3 c15 -2 35 -13 45 -24 9 -10 25 -19 34 -19
10 0 23 -7 30 -15 11 -13 924 -15 8105 -15 7181 0 8094 2 8105 15 11 13 113
15 810 15 697 0 799 -2 810 -15 9 -11 34 -15 95 -15 61 0 86 4 95 15 9 11 34
15 101 15 48 0 91 5 94 10 3 6 17 10 29 10 30 0 78 24 68 34 -4 4 4 6 18 5 14
-1 36 -1 50 0 23 2 24 3 5 11 -18 8 -17 9 8 9 16 1 26 5 22 11 -3 6 1 7 9 4 9
-3 13 -11 10 -16 -4 -6 -1 -8 7 -6 8 3 13 11 11 17 -1 6 4 14 12 17 8 3 12 15
10 27 -4 21 -4 21 5 2 5 -12 5 -25 -1 -32 -8 -10 -4 -13 14 -13 27 0 73 42 61
54 -5 5 2 5 14 2 18 -6 31 2 68 40 47 50 63 84 21 45 -15 -14 -26 -19 -31 -12
-3 6 -1 11 4 11 6 0 10 5 9 12 -2 7 3 13 10 14 6 1 14 3 17 4 3 1 9 3 14 4 20
2 25 18 9 27 -21 12 -16 46 12 73 l20 20 0 -24 c0 -17 -3 -21 -9 -12 -5 9 -8
3 -9 -18 l-1 -30 35 35 c19 19 34 41 34 48 0 8 11 24 25 37 24 22 37 78 15 65
-5 -3 -10 -2 -10 4 0 5 -3 17 -7 27 -4 11 -3 15 4 11 6 -4 14 -1 16 5 4 10 6
9 6 -1 1 -11 4 -11 16 -1 10 8 15 31 15 66 0 29 5 56 10 59 6 4 10 55 10 121
0 69 -4 114 -10 114 -6 0 -10 -40 -10 -99z m-14920 -737 c-58 -7 -1858 -9
-1854 -2 3 4 427 7 942 7 515 -1 926 -3 912 -5z m11503 -1 c5 -7 -2924 -7
-3283 0 -80 1 625 4 1567 5 941 1 1714 -1 1716 -5z m2712 -23 c-4 -7 -420 -10
-1216 -10 -804 0 -1208 3 -1204 10 4 7 420 10 1216 10 804 0 1208 -3 1204 -10z
m-14130 -20 c4 -7 -280 -10 -844 -10 -561 0 -851 3 -851 10 0 7 288 10 844 10
553 0 847 -3 851 -10z m11345 0 c0 -7 -575 -10 -1705 -10 -1130 0 -1705 3
-1705 10 0 7 575 10 1705 10 1130 0 1705 -3 1705 -10z"/>
</g>
</svg>
